# This file uses centimeters as units for non-parametric coordinates.

mtllib PicObj.mtl
g default
v -0.628937 -0.544163 121.461375
v -1.768085 -0.109313 121.326912
v -2.665631 0.974203 121.412614
v -2.190748 2.192132 121.358275
v -1.170123 3.027748 121.449388
v -0.012805 2.643296 121.353418
v 0.939987 1.603969 121.550480
v 0.401398 0.313545 121.326263
v -0.096601 0.705191 131.254925
v 0.182873 1.450482 130.945626
v -0.314774 2.217608 131.067177
v -1.141854 2.406861 131.048010
v -1.906658 1.934354 131.134800
v -2.029393 1.074303 131.241422
v -1.627147 0.331077 131.298063
v -0.851051 0.188686 131.132868
v 0.161726 3.000602 136.016853
v -2.161578 -0.325855 136.230635
v -1.181898 1.591333 159.476993
v -1.709863 0.033498 121.099273
v -0.617625 -0.241457 121.197621
v 0.319733 0.338439 121.163247
v 0.609853 1.579343 121.257699
v 0.064695 2.422039 121.185489
v -1.136362 2.730535 121.185981
v -2.066738 2.173113 121.135311
v -2.412835 0.985040 121.250839
v -0.984138 2.528329 103.808452
v -1.963985 1.868870 103.844067
v -2.129290 0.543168 103.738303
v -1.351166 -0.314006 103.810416
v -0.276758 -0.319315 103.796214
v 0.391915 0.195708 103.807345
v 0.623492 1.564444 103.886126
v 0.032271 2.336678 103.844468
v -0.212618 -1.838412 -110.249249
v 0.660577 -2.394016 -110.237158
v 1.670889 -2.169458 -110.231150
v 2.226595 -1.296283 -110.235474
v 2.002080 -0.285954 -110.247080
v 1.128886 0.269649 -110.259171
v 0.118610 0.045098 -110.264690
v -0.437097 -0.828084 -110.260364
v 0.821380 -1.103414 -110.248077
v -0.439649 -0.824889 -109.934226
v -0.215084 -1.835222 -109.923192
v 1.126435 0.272843 -109.933064
v 0.116057 0.048293 -109.938552
v 0.658109 -2.390826 -109.911108
v 1.668436 -2.166265 -109.905048
v 2.224144 -1.293088 -109.909367
v 1.999627 -0.282761 -109.920979
v -2.064400 1.265041 103.347114
v -1.839987 0.254714 103.358751
v -0.966793 -0.300890 103.370841
v -1.508796 2.138218 103.342820
v 0.043585 -0.076340 103.376329
v 0.599291 0.796843 103.372004
v 0.374777 1.807171 103.360398
v -0.498418 2.362775 103.348307
v -0.227627 2.014451 67.801413
v -1.237903 1.789900 67.795895
v 0.043162 1.666128 32.254516
v -0.967114 1.441577 32.248997
v 0.314055 1.317811 -3.292408
v -0.696323 1.093254 -3.297895
v 0.584844 0.969487 -38.839307
v -0.425534 0.744937 -38.844795
v 0.855640 0.621165 -74.386182
v -0.154737 0.396616 -74.391670
v 0.645567 1.458848 67.813504
v 0.916356 1.110524 32.266603
v 1.187147 0.762208 -3.280288
v 1.458039 0.413883 -38.827216
v 1.728835 0.065562 -74.374091
v 0.870082 0.448519 67.825110
v 1.140871 0.100203 32.278212
v 1.411662 -0.248120 -3.268681
v 1.682452 -0.596444 -38.815580
v 1.953350 -0.944766 -74.362485
v 0.314376 -0.424656 67.829435
v 0.585165 -0.772980 32.282537
v 0.855956 -1.121303 -3.264356
v 1.126847 -1.469621 -38.811285
v 1.397643 -1.817942 -74.358161
v -0.695923 -0.649214 67.823840
v -0.425157 -0.997537 32.276866
v -0.154396 -1.345855 -3.270130
v 0.116473 -1.694179 -38.817132
v 0.387238 -2.042503 -74.364113
v -1.793610 0.916718 67.800220
v -1.522820 0.568395 32.253323
v -1.252029 0.220078 -3.293571
v -0.981240 -0.128245 -38.840470
v -0.710444 -0.476567 -74.387345
v -1.569118 -0.093610 67.811749
v -1.298350 -0.441933 32.264778
v -1.027489 -0.790253 -3.282250
v -0.756721 -1.138575 -38.829220
v -0.485957 -1.486899 -74.376203
v -0.628937 -0.544163 121.461375
v -1.768085 -0.109313 121.326912
v -2.665631 0.974203 121.412614
v -2.190748 2.192132 121.358275
v -1.170123 3.027748 121.449388
v -0.012805 2.643296 121.353418
v 0.939987 1.603969 121.550480
v 0.401398 0.313545 121.326263
v -0.096601 0.705191 131.254925
v 0.182873 1.450482 130.945626
v -0.314774 2.217608 131.067177
v -1.141854 2.406861 131.048010
v -1.906658 1.934354 131.134800
v -2.029393 1.074303 131.241422
v -1.627147 0.331077 131.298063
v -0.851051 0.188686 131.132868
v 0.161726 3.000602 136.016853
v -2.161578 -0.325855 136.230635
v -1.181898 1.591333 159.476993
v -1.709863 0.033498 121.099273
v -0.617625 -0.241457 121.197621
v 0.319733 0.338439 121.163247
v 0.609853 1.579343 121.257699
v 0.064695 2.422039 121.185489
v -1.136362 2.730535 121.185981
v -2.066738 2.173113 121.135311
v -2.412835 0.985040 121.250839
v -0.984138 2.528329 103.808452
v -1.963985 1.868870 103.844067
v -2.129290 0.543168 103.738303
v -1.351166 -0.314006 103.810416
v -0.276758 -0.319315 103.796214
v 0.391915 0.195708 103.807345
v 0.623492 1.564444 103.886126
v 0.032271 2.336678 103.844468
v -0.212618 -1.838412 -110.249249
v 0.660577 -2.394016 -110.237158
v 1.670889 -2.169458 -110.231150
v 2.226595 -1.296283 -110.235474
v 2.002080 -0.285954 -110.247080
v 1.128886 0.269649 -110.259171
v 0.118610 0.045098 -110.264690
v -0.437097 -0.828084 -110.260364
v 0.821380 -1.103414 -110.248077
v -0.439649 -0.824889 -109.934226
v -0.215084 -1.835222 -109.923192
v 1.126435 0.272843 -109.933064
v 0.116057 0.048293 -109.938552
v 0.658109 -2.390826 -109.911108
v 1.668436 -2.166265 -109.905048
v 2.224144 -1.293088 -109.909367
v 1.999627 -0.282761 -109.920979
v -2.064400 1.265041 103.347114
v -1.839987 0.254714 103.358751
v -0.966793 -0.300890 103.370841
v -1.508796 2.138218 103.342820
v 0.043585 -0.076340 103.376329
v 0.599291 0.796843 103.372004
v 0.374777 1.807171 103.360398
v -0.498418 2.362775 103.348307
v -0.227627 2.014451 67.801413
v -1.237903 1.789900 67.795895
v 0.043162 1.666128 32.254516
v -0.967114 1.441577 32.248997
v 0.314055 1.317811 -3.292408
v -0.696323 1.093254 -3.297895
v 0.584844 0.969487 -38.839307
v -0.425534 0.744937 -38.844795
v 0.855640 0.621165 -74.386182
v -0.154737 0.396616 -74.391670
v 0.645567 1.458848 67.813504
v 0.916356 1.110524 32.266603
v 1.187147 0.762208 -3.280288
v 1.458039 0.413883 -38.827216
v 1.728835 0.065562 -74.374091
v 0.870082 0.448519 67.825110
v 1.140871 0.100203 32.278212
v 1.411662 -0.248120 -3.268681
v 1.682452 -0.596444 -38.815580
v 1.953350 -0.944766 -74.362485
v 0.314376 -0.424656 67.829435
v 0.585165 -0.772980 32.282537
v 0.855956 -1.121303 -3.264356
v 1.126847 -1.469621 -38.811285
v 1.397643 -1.817942 -74.358161
v -0.695923 -0.649214 67.823840
v -0.425157 -0.997537 32.276866
v -0.154396 -1.345855 -3.270130
v 0.116473 -1.694179 -38.817132
v 0.387238 -2.042503 -74.364113
v -1.793610 0.916718 67.800220
v -1.522820 0.568395 32.253323
v -1.252029 0.220078 -3.293571
v -0.981240 -0.128245 -38.840470
v -0.710444 -0.476567 -74.387345
v -1.569118 -0.093610 67.811749
v -1.298350 -0.441933 32.264778
v -1.027489 -0.790253 -3.282250
v -0.756721 -1.138575 -38.829220
v -0.485957 -1.486899 -74.376203
vt 0.106340 0.505304
vt 0.086890 0.503455
vt 0.087626 0.418748
vt 0.090049 0.674563
vt 0.070584 0.672879
vt 0.068729 0.504501
vt 0.049323 0.675232
vt 0.049565 0.503790
vt 0.027862 0.674185
vt 0.034297 0.501338
vt 0.003906 0.675932
vt 0.019454 0.499740
vt 0.177768 0.672020
vt 0.156935 0.670928
vt 0.142532 0.500028
vt 0.156034 0.495609
vt 0.134972 0.674469
vt 0.123175 0.499669
vt 0.112356 0.670909
vt 0.014232 0.411694
vt 0.155225 0.407320
vt 0.070987 0.003906
vt 0.175197 0.677826
vt 0.155018 0.676852
vt 0.135056 0.677844
vt 0.111719 0.677029
vt 0.093319 0.678419
vt 0.070575 0.678810
vt 0.050780 0.679758
vt 0.028216 0.678410
vt 0.007246 0.681582
vt 0.079476 0.983675
vt 0.058739 0.983728
vt 0.035386 0.986694
vt 0.015022 0.986720
vt 0.172814 0.982781
vt 0.153932 0.983189
vt 0.139098 0.983169
vt 0.114687 0.981882
vt 0.097613 0.982729
vt 0.116602 0.058265
vt 0.110893 0.058265
vt 0.110893 0.040146
vt 0.116602 0.040146
vt 0.116602 0.094504
vt 0.110893 0.094504
vt 0.110893 0.076385
vt 0.116602 0.076385
vt 0.048600 0.993325
vt 0.029127 0.994045
vt 0.116602 0.112624
vt 0.110893 0.112624
vt 0.010800 0.996094
vt 0.068309 0.992683
vt 0.165908 0.990762
vt 0.147001 0.990891
vt 0.116602 0.130744
vt 0.110893 0.130744
vt 0.127978 0.991279
vt 0.116602 0.022026
vt 0.110893 0.022026
vt 0.110893 0.003906
vt 0.116602 0.003906
vt 0.108684 0.991548
vt 0.116602 0.148863
vt 0.110893 0.148863
vt 0.088506 0.992199
vt 0.868730 0.074645
vt 0.849115 0.101915
vt 0.825118 0.067187
vt 0.815962 0.107329
vt 0.788691 0.087714
vt 0.783278 0.054561
vt 0.802893 0.027291
vt 0.836046 0.021877
vt 0.863317 0.041492
vt 0.185980 0.687623
vt 0.808331 0.687623
vt 0.808331 0.705742
vt 0.185980 0.705742
vt 0.178619 0.534813
vt 0.800970 0.534813
vt 0.800970 0.552933
vt 0.178619 0.552933
vt 0.142793 0.229194
vt 0.765144 0.229194
vt 0.765144 0.247314
vt 0.142793 0.247314
vt 0.786247 0.382004
vt 0.163896 0.382004
vt 0.163896 0.363884
vt 0.786247 0.363884
vt 0.182545 0.840432
vt 0.804896 0.840432
vt 0.804896 0.858552
vt 0.182545 0.858552
vt 0.738953 0.076385
vt 0.738953 0.058265
vt 0.185980 0.669503
vt 0.808331 0.669503
vt 0.178619 0.516694
vt 0.800970 0.516694
vt 0.142793 0.211075
vt 0.765144 0.211075
vt 0.786247 0.400123
vt 0.163896 0.400123
vt 0.182545 0.822313
vt 0.804896 0.822313
vt 0.738953 0.094504
vt 0.185980 0.651383
vt 0.808331 0.651383
vt 0.178619 0.498574
vt 0.800970 0.498574
vt 0.142793 0.192955
vt 0.765144 0.192955
vt 0.786247 0.418243
vt 0.163896 0.418243
vt 0.182545 0.804193
vt 0.804896 0.804193
vt 0.738953 0.112624
vt 0.185980 0.633264
vt 0.808331 0.633264
vt 0.178619 0.480454
vt 0.800970 0.480454
vt 0.142793 0.174835
vt 0.765144 0.174835
vt 0.786247 0.436363
vt 0.163896 0.436363
vt 0.182545 0.786073
vt 0.804896 0.786073
vt 0.738953 0.130744
vt 0.185980 0.615144
vt 0.808331 0.615144
vt 0.178619 0.462335
vt 0.800970 0.462335
vt 0.142793 0.156716
vt 0.765144 0.156716
vt 0.786247 0.454482
vt 0.163896 0.454482
vt 0.182545 0.767954
vt 0.804896 0.767954
vt 0.738953 0.148863
vt 0.808331 0.723862
vt 0.185980 0.723862
vt 0.800970 0.571052
vt 0.178619 0.571052
vt 0.765144 0.265433
vt 0.142793 0.265433
vt 0.163896 0.345765
vt 0.786247 0.345765
vt 0.804896 0.876671
vt 0.182545 0.876671
vt 0.738953 0.040146
vt 0.185980 0.741982
vt 0.808331 0.741982
vt 0.808331 0.760101
vt 0.185980 0.760101
vt 0.178619 0.589172
vt 0.800970 0.589172
vt 0.800970 0.607292
vt 0.178619 0.607292
vt 0.142793 0.283553
vt 0.765144 0.283553
vt 0.765144 0.301673
vt 0.142793 0.301673
vt 0.786247 0.327645
vt 0.163896 0.327645
vt 0.163896 0.309525
vt 0.786247 0.309525
vt 0.182545 0.894791
vt 0.804896 0.894791
vt 0.804896 0.912911
vt 0.182545 0.912911
vt 0.738953 0.022026
vt 0.738953 0.003906
vt 0.106340 0.505304
vt 0.086890 0.503455
vt 0.087626 0.418748
vt 0.090049 0.674563
vt 0.070584 0.672879
vt 0.068729 0.504501
vt 0.049323 0.675232
vt 0.049565 0.503790
vt 0.027862 0.674185
vt 0.034297 0.501338
vt 0.003906 0.675932
vt 0.019454 0.499740
vt 0.177768 0.672020
vt 0.156935 0.670928
vt 0.142532 0.500028
vt 0.156034 0.495609
vt 0.134972 0.674469
vt 0.123175 0.499669
vt 0.112356 0.670909
vt 0.014232 0.411694
vt 0.155225 0.407320
vt 0.070987 0.003906
vt 0.175197 0.677826
vt 0.155018 0.676852
vt 0.135056 0.677844
vt 0.111719 0.677029
vt 0.093319 0.678419
vt 0.070575 0.678810
vt 0.050780 0.679758
vt 0.028216 0.678410
vt 0.007246 0.681582
vt 0.079476 0.983675
vt 0.058739 0.983728
vt 0.035386 0.986694
vt 0.015022 0.986720
vt 0.172814 0.982781
vt 0.153932 0.983189
vt 0.139098 0.983169
vt 0.114687 0.981882
vt 0.097613 0.982729
vt 0.116602 0.058265
vt 0.110893 0.058265
vt 0.110893 0.040146
vt 0.116602 0.040146
vt 0.116602 0.094504
vt 0.110893 0.094504
vt 0.110893 0.076385
vt 0.116602 0.076385
vt 0.048600 0.993325
vt 0.029127 0.994045
vt 0.116602 0.112624
vt 0.110893 0.112624
vt 0.010800 0.996094
vt 0.068309 0.992683
vt 0.165908 0.990762
vt 0.147001 0.990891
vt 0.116602 0.130744
vt 0.110893 0.130744
vt 0.127978 0.991279
vt 0.116602 0.022026
vt 0.110893 0.022026
vt 0.110893 0.003906
vt 0.116602 0.003906
vt 0.108684 0.991548
vt 0.116602 0.148863
vt 0.110893 0.148863
vt 0.088506 0.992199
vt 0.868730 0.074645
vt 0.849115 0.101915
vt 0.825118 0.067187
vt 0.815962 0.107329
vt 0.788691 0.087714
vt 0.783278 0.054561
vt 0.802893 0.027291
vt 0.836046 0.021877
vt 0.863317 0.041492
vt 0.185980 0.687623
vt 0.808331 0.687623
vt 0.808331 0.705742
vt 0.185980 0.705742
vt 0.178619 0.534813
vt 0.800970 0.534813
vt 0.800970 0.552933
vt 0.178619 0.552933
vt 0.142793 0.229194
vt 0.765144 0.229194
vt 0.765144 0.247314
vt 0.142793 0.247314
vt 0.786247 0.382004
vt 0.163896 0.382004
vt 0.163896 0.363884
vt 0.786247 0.363884
vt 0.182545 0.840432
vt 0.804896 0.840432
vt 0.804896 0.858552
vt 0.182545 0.858552
vt 0.738953 0.076385
vt 0.738953 0.058265
vt 0.185980 0.669503
vt 0.808331 0.669503
vt 0.178619 0.516694
vt 0.800970 0.516694
vt 0.142793 0.211075
vt 0.765144 0.211075
vt 0.786247 0.400123
vt 0.163896 0.400123
vt 0.182545 0.822313
vt 0.804896 0.822313
vt 0.738953 0.094504
vt 0.185980 0.651383
vt 0.808331 0.651383
vt 0.178619 0.498574
vt 0.800970 0.498574
vt 0.142793 0.192955
vt 0.765144 0.192955
vt 0.786247 0.418243
vt 0.163896 0.418243
vt 0.182545 0.804193
vt 0.804896 0.804193
vt 0.738953 0.112624
vt 0.185980 0.633264
vt 0.808331 0.633264
vt 0.178619 0.480454
vt 0.800970 0.480454
vt 0.142793 0.174835
vt 0.765144 0.174835
vt 0.786247 0.436363
vt 0.163896 0.436363
vt 0.182545 0.786073
vt 0.804896 0.786073
vt 0.738953 0.130744
vt 0.185980 0.615144
vt 0.808331 0.615144
vt 0.178619 0.462335
vt 0.800970 0.462335
vt 0.142793 0.156716
vt 0.765144 0.156716
vt 0.786247 0.454482
vt 0.163896 0.454482
vt 0.182545 0.767954
vt 0.804896 0.767954
vt 0.738953 0.148863
vt 0.808331 0.723862
vt 0.185980 0.723862
vt 0.800970 0.571052
vt 0.178619 0.571052
vt 0.765144 0.265433
vt 0.142793 0.265433
vt 0.163896 0.345765
vt 0.786247 0.345765
vt 0.804896 0.876671
vt 0.182545 0.876671
vt 0.738953 0.040146
vt 0.185980 0.741982
vt 0.808331 0.741982
vt 0.808331 0.760101
vt 0.185980 0.760101
vt 0.178619 0.589172
vt 0.800970 0.589172
vt 0.800970 0.607292
vt 0.178619 0.607292
vt 0.142793 0.283553
vt 0.765144 0.283553
vt 0.765144 0.301673
vt 0.142793 0.301673
vt 0.786247 0.327645
vt 0.163896 0.327645
vt 0.163896 0.309525
vt 0.786247 0.309525
vt 0.182545 0.894791
vt 0.804896 0.894791
vt 0.804896 0.912911
vt 0.182545 0.912911
vt 0.738953 0.022026
vt 0.738953 0.003906
vn 0.991234 0.117330 0.060729
vn 0.564142 0.825521 0.016069
vn 0.797904 0.591799 0.114550
vn 0.559984 0.827811 0.033857
vn -0.186935 0.981680 0.036882
vn -0.388869 0.920827 0.029313
vn -0.818885 0.573330 0.026845
vn -0.808263 0.587883 0.033231
vn -0.983046 -0.179721 0.036349
vn -0.998823 0.037973 0.030171
vn -0.598875 -0.800322 0.028881
vn -0.611121 -0.791429 0.013084
vn 0.209763 -0.976354 0.052276
vn 0.700662 -0.711241 0.056654
vn 0.792321 -0.608554 0.043475
vn 0.884093 -0.464066 0.054986
vn 0.985745 0.158464 0.056536
vn -0.875269 -0.478106 0.072930
vn 0.505960 0.408577 0.759651
vn -0.507625 -0.861541 -0.008002
vn 0.213214 -0.976992 -0.005097
vn 0.869393 -0.494098 -0.004829
vn 0.989290 0.145202 -0.014871
vn 0.543020 0.839486 -0.019821
vn -0.166704 0.985587 -0.028786
vn -0.839766 0.542220 -0.028117
vn -0.978438 -0.205068 -0.024627
vn -0.170295 0.985175 -0.020744
vn -0.843306 0.536975 -0.022202
vn -0.973248 -0.229359 -0.013495
vn -0.496383 -0.868103 -0.000486
vn 0.216521 -0.976258 0.006170
vn 0.862091 -0.506737 0.004165
vn 0.989563 0.144082 -0.002177
vn 0.525817 0.850490 -0.013554
vn -0.573937 0.818806 -0.012394
vn -0.305086 0.436209 -0.846548
vn -0.544816 0.088984 -0.833821
vn -0.984870 0.173048 -0.009202
vn 0.818874 0.573972 0.000616
vn 0.430663 0.288996 -0.854992
vn 0.097541 0.509570 -0.854883
vn 0.173191 0.984853 -0.008325
vn -0.984808 0.173218 -0.012214
vn -0.818684 -0.574230 -0.004133
vn 0.984863 -0.173091 0.009197
vn 0.521329 -0.098799 -0.847617
vn -0.172751 -0.984953 0.005075
vn -0.574131 0.818595 -0.016588
vn 0.574102 -0.818724 0.009880
vn 0.573876 -0.818848 0.012394
vn 0.315374 -0.448736 -0.836167
vn 0.985037 -0.172152 0.008057
vn -0.818810 -0.574064 -0.000616
vn -0.456565 -0.332295 -0.825305
vn -0.089692 -0.555427 -0.826714
vn -0.173238 -0.984845 0.008329
vn 0.819601 0.572928 -0.002838
vn 0.173421 0.984758 -0.013337
vn 0.007718 -0.009636 -0.999924
vn 0.173174 0.984856 -0.008332
vn -0.573951 0.818796 -0.012396
vn 0.173185 0.984854 -0.008333
vn -0.573961 0.818788 -0.012395
vn 0.173186 0.984854 -0.008330
vn -0.573926 0.818813 -0.012397
vn 0.173168 0.984857 -0.008333
vn -0.573916 0.818820 -0.012398
vn 0.173171 0.984856 -0.008332
vn -0.573926 0.818813 -0.012396
vn 0.818853 0.574002 0.000614
vn 0.818843 0.574017 0.000613
vn 0.818858 0.573996 0.000613
vn 0.818854 0.574002 0.000613
vn 0.818860 0.573994 0.000615
vn 0.984860 -0.173109 0.009200
vn 0.984865 -0.173081 0.009198
vn 0.984866 -0.173071 0.009197
vn 0.984859 -0.173112 0.009202
vn 0.984859 -0.173112 0.009201
vn 0.573946 -0.818799 0.012396
vn 0.573938 -0.818805 0.012396
vn 0.573929 -0.818811 0.012398
vn 0.573917 -0.818820 0.012400
vn 0.573922 -0.818816 0.012397
vn -0.173185 -0.984854 0.008330
vn -0.173172 -0.984856 0.008333
vn -0.173173 -0.984856 0.008332
vn -0.173175 -0.984856 0.008331
vn -0.173168 -0.984857 0.008331
vn -0.984863 0.173092 -0.009199
vn -0.984861 0.173103 -0.009199
vn -0.984861 0.173103 -0.009198
vn -0.984864 0.173084 -0.009197
vn -0.984863 0.173088 -0.009198
vn -0.818863 -0.573988 -0.000616
vn -0.818866 -0.573985 -0.000615
vn -0.818856 -0.573999 -0.000614
vn -0.818857 -0.573997 -0.000614
vn -0.818853 -0.574003 -0.000614
vn 0.991234 0.117330 0.060729
vn 0.564142 0.825521 0.016069
vn 0.797904 0.591799 0.114550
vn 0.559984 0.827811 0.033857
vn -0.186935 0.981680 0.036882
vn -0.388869 0.920827 0.029313
vn -0.818885 0.573330 0.026845
vn -0.808263 0.587883 0.033231
vn -0.983046 -0.179721 0.036349
vn -0.998823 0.037973 0.030171
vn -0.598875 -0.800322 0.028881
vn -0.611121 -0.791429 0.013084
vn 0.209763 -0.976354 0.052276
vn 0.700662 -0.711241 0.056654
vn 0.792321 -0.608554 0.043475
vn 0.884093 -0.464066 0.054986
vn 0.985745 0.158464 0.056536
vn -0.875269 -0.478106 0.072930
vn 0.505960 0.408577 0.759651
vn -0.507625 -0.861541 -0.008002
vn 0.213214 -0.976992 -0.005097
vn 0.869393 -0.494098 -0.004829
vn 0.989290 0.145202 -0.014871
vn 0.543020 0.839486 -0.019821
vn -0.166704 0.985587 -0.028786
vn -0.839766 0.542220 -0.028117
vn -0.978438 -0.205068 -0.024627
vn -0.170295 0.985175 -0.020744
vn -0.843306 0.536975 -0.022202
vn -0.973248 -0.229359 -0.013495
vn -0.496383 -0.868103 -0.000486
vn 0.216521 -0.976258 0.006170
vn 0.862091 -0.506737 0.004165
vn 0.989563 0.144082 -0.002177
vn 0.525817 0.850490 -0.013554
vn -0.573937 0.818806 -0.012394
vn -0.305086 0.436209 -0.846548
vn -0.544816 0.088984 -0.833821
vn -0.984870 0.173048 -0.009202
vn 0.818874 0.573972 0.000616
vn 0.430663 0.288996 -0.854992
vn 0.097541 0.509570 -0.854883
vn 0.173191 0.984853 -0.008325
vn -0.984808 0.173218 -0.012214
vn -0.818684 -0.574230 -0.004133
vn 0.984863 -0.173091 0.009197
vn 0.521329 -0.098799 -0.847617
vn -0.172751 -0.984953 0.005075
vn -0.574131 0.818595 -0.016588
vn 0.574102 -0.818724 0.009880
vn 0.573876 -0.818848 0.012394
vn 0.315374 -0.448736 -0.836167
vn 0.985037 -0.172152 0.008057
vn -0.818810 -0.574064 -0.000616
vn -0.456565 -0.332295 -0.825305
vn -0.089692 -0.555427 -0.826714
vn -0.173238 -0.984845 0.008329
vn 0.819601 0.572928 -0.002838
vn 0.173421 0.984758 -0.013337
vn 0.007718 -0.009636 -0.999924
vn 0.173174 0.984856 -0.008332
vn -0.573951 0.818796 -0.012396
vn 0.173185 0.984854 -0.008333
vn -0.573961 0.818788 -0.012395
vn 0.173186 0.984854 -0.008330
vn -0.573926 0.818813 -0.012397
vn 0.173168 0.984857 -0.008333
vn -0.573916 0.818820 -0.012398
vn 0.173171 0.984856 -0.008332
vn -0.573926 0.818813 -0.012396
vn 0.818853 0.574002 0.000614
vn 0.818843 0.574017 0.000613
vn 0.818858 0.573996 0.000613
vn 0.818854 0.574002 0.000613
vn 0.818860 0.573994 0.000615
vn 0.984860 -0.173109 0.009200
vn 0.984865 -0.173081 0.009198
vn 0.984866 -0.173071 0.009197
vn 0.984859 -0.173112 0.009202
vn 0.984859 -0.173112 0.009201
vn 0.573946 -0.818799 0.012396
vn 0.573938 -0.818805 0.012396
vn 0.573929 -0.818811 0.012398
vn 0.573917 -0.818820 0.012400
vn 0.573922 -0.818816 0.012397
vn -0.173185 -0.984854 0.008330
vn -0.173172 -0.984856 0.008333
vn -0.173173 -0.984856 0.008332
vn -0.173175 -0.984856 0.008331
vn -0.173168 -0.984857 0.008331
vn -0.984863 0.173092 -0.009199
vn -0.984861 0.173103 -0.009199
vn -0.984861 0.173103 -0.009198
vn -0.984864 0.173084 -0.009197
vn -0.984863 0.173088 -0.009198
vn -0.818863 -0.573988 -0.000616
vn -0.818866 -0.573985 -0.000615
vn -0.818856 -0.573999 -0.000614
vn -0.818857 -0.573997 -0.000614
vn -0.818853 -0.574003 -0.000614
s 1
g lance
usemtl shield1SG
f 10/1/1 11/2/2 17/3/3
f 11/2/2 6/4/4 5/5/5 12/6/6
f 5/5/5 4/7/7 13/8/8 12/6/6
f 4/7/7 3/9/9 14/10/10 13/8/8
f 3/9/9 2/11/11 15/12/12 14/10/10
f 2/13/11 1/14/13 16/15/14 15/16/12
f 1/14/13 8/17/15 9/18/16 16/15/14
f 8/17/15 7/19/17 10/1/1 9/18/16
f 7/19/17 6/4/4 11/2/2 10/1/1
f 11/2/2 12/6/6 17/3/3
f 14/10/10 15/12/12 18/20/18
f 15/16/12 16/15/14 18/21/18
f 16/15/14 19/22/19 18/21/18
f 9/18/16 10/1/1 17/3/3
f 18/20/18 19/22/19 13/8/8 14/10/10
f 13/8/8 19/22/19 17/3/3 12/6/6
f 19/22/19 16/15/14 9/18/16 17/3/3
f 2/13/11 20/23/20 21/24/21 1/14/13
f 22/25/22 8/17/15 1/14/13 21/24/21
f 8/17/15 22/25/22 23/26/23 7/19/17
f 23/26/23 24/27/24 6/4/4 7/19/17
f 25/28/25 5/5/5 6/4/4 24/27/24
f 26/29/26 4/7/7 5/5/5 25/28/25
f 4/7/7 26/29/26 27/30/27 3/9/9
f 20/31/20 2/11/11 3/9/9 27/30/27
f 25/28/25 28/32/28 29/33/29 26/29/26
f 26/29/26 29/33/29 30/34/30 27/30/27
f 27/30/27 30/34/30 31/35/31 20/31/20
f 20/23/20 31/36/31 32/37/32 21/24/21
f 21/24/21 32/37/32 33/38/33 22/25/22
f 22/25/22 33/38/33 34/39/34 23/26/23
f 23/26/23 34/39/34 35/40/35 24/27/24
f 24/27/24 35/40/35 28/32/28 25/28/25
f 48/41/36 42/42/37 43/43/38 45/44/39
f 52/45/40 40/46/41 41/47/42 47/48/43
f 29/33/29 53/49/44 54/50/45 30/34/30
f 51/51/46 39/52/47 40/46/41 52/45/40
f 30/34/30 54/50/45 55/53/48 31/35/31
f 28/32/28 56/54/49 53/49/44 29/33/29
f 31/36/31 55/55/48 57/56/50 32/37/32
f 50/57/51 38/58/52 39/52/47 51/51/46
f 32/37/32 57/56/50 58/59/53 33/38/33
f 46/60/54 36/61/55 37/62/56 49/63/57
f 33/38/33 58/59/53 59/64/58 34/39/34
f 49/65/57 37/66/56 38/58/52 50/57/51
f 47/48/43 41/47/42 42/42/37 48/41/36
f 45/44/39 43/43/38 36/61/55 46/60/54
f 34/39/34 59/64/58 60/67/59 35/40/35
f 35/40/35 60/67/59 56/54/49 28/32/28
f 38/68/52 37/69/56 44/70/60
f 37/69/56 36/71/55 44/70/60
f 36/71/55 43/72/38 44/70/60
f 43/72/38 42/73/37 44/70/60
f 42/73/37 41/74/42 44/70/60
f 41/74/42 40/75/41 44/70/60
f 40/75/41 39/76/47 44/70/60
f 39/76/47 38/68/52 44/70/60
f 60/77/59 61/78/61 62/79/62 56/80/49
f 61/81/61 63/82/63 64/83/64 62/84/62
f 63/85/63 65/86/65 66/87/66 64/88/64
f 65/89/65 67/90/67 68/91/68 66/92/66
f 67/93/67 69/94/69 70/95/70 68/96/68
f 69/97/69 47/48/43 48/41/36 70/98/70
f 59/99/58 71/100/71 61/78/61 60/77/59
f 71/101/71 72/102/72 63/82/63 61/81/61
f 72/103/72 73/104/73 65/86/65 63/85/63
f 73/105/73 74/106/74 67/90/67 65/89/65
f 74/107/74 75/108/75 69/94/69 67/93/67
f 75/109/75 52/45/40 47/48/43 69/97/69
f 58/110/53 76/111/76 71/100/71 59/99/58
f 76/112/76 77/113/77 72/102/72 71/101/71
f 77/114/77 78/115/78 73/104/73 72/103/72
f 78/116/78 79/117/79 74/106/74 73/105/73
f 79/118/79 80/119/80 75/108/75 74/107/74
f 80/120/80 51/51/46 52/45/40 75/109/75
f 57/121/50 81/122/81 76/111/76 58/110/53
f 81/123/81 82/124/82 77/113/77 76/112/76
f 82/125/82 83/126/83 78/115/78 77/114/77
f 83/127/83 84/128/84 79/117/79 78/116/78
f 84/129/84 85/130/85 80/119/80 79/118/79
f 85/131/85 50/57/51 51/51/46 80/120/80
f 55/132/48 86/133/86 81/122/81 57/121/50
f 86/134/86 87/135/87 82/124/82 81/123/81
f 87/136/87 88/137/88 83/126/83 82/125/82
f 88/138/88 89/139/89 84/128/84 83/127/83
f 89/140/89 90/141/90 85/130/85 84/129/84
f 90/142/90 49/65/57 50/57/51 85/131/85
f 56/80/49 62/79/62 91/143/91 53/144/44
f 62/84/62 64/83/64 92/145/92 91/146/91
f 64/88/64 66/87/66 93/147/93 92/148/92
f 66/92/66 68/91/68 94/149/94 93/150/93
f 68/96/68 70/95/70 95/151/95 94/152/94
f 70/98/70 48/41/36 45/44/39 95/153/95
f 54/154/45 96/155/96 86/156/86 55/157/48
f 96/158/96 97/159/97 87/160/87 86/161/86
f 97/162/97 98/163/98 88/164/88 87/165/87
f 98/166/98 99/167/99 89/168/89 88/169/88
f 99/170/99 100/171/100 90/172/90 89/173/89
f 100/174/100 46/60/54 49/63/57 90/175/90
f 53/144/44 91/143/91 96/155/96 54/154/45
f 91/146/91 92/145/92 97/159/97 96/158/96
f 92/148/92 93/147/93 98/163/98 97/162/97
f 93/150/93 94/149/94 99/167/99 98/166/98
f 94/152/94 95/151/95 100/171/100 99/170/99
f 95/153/95 45/44/39 46/60/54 100/174/100
s 4
f 110/176/101 111/177/102 117/178/103
f 111/177/102 106/179/104 105/180/105 112/181/106
f 105/180/105 104/182/107 113/183/108 112/181/106
f 104/182/107 103/184/109 114/185/110 113/183/108
f 103/184/109 102/186/111 115/187/112 114/185/110
f 102/188/111 101/189/113 116/190/114 115/191/112
f 101/189/113 108/192/115 109/193/116 116/190/114
f 108/192/115 107/194/117 110/176/101 109/193/116
f 107/194/117 106/179/104 111/177/102 110/176/101
f 111/177/102 112/181/106 117/178/103
f 114/185/110 115/187/112 118/195/118
f 115/191/112 116/190/114 118/196/118
f 116/190/114 119/197/119 118/196/118
f 109/193/116 110/176/101 117/178/103
f 118/195/118 119/197/119 113/183/108 114/185/110
f 113/183/108 119/197/119 117/178/103 112/181/106
f 119/197/119 116/190/114 109/193/116 117/178/103
f 102/188/111 120/198/120 121/199/121 101/189/113
f 122/200/122 108/192/115 101/189/113 121/199/121
f 108/192/115 122/200/122 123/201/123 107/194/117
f 123/201/123 124/202/124 106/179/104 107/194/117
f 125/203/125 105/180/105 106/179/104 124/202/124
f 126/204/126 104/182/107 105/180/105 125/203/125
f 104/182/107 126/204/126 127/205/127 103/184/109
f 120/206/120 102/186/111 103/184/109 127/205/127
f 125/203/125 128/207/128 129/208/129 126/204/126
f 126/204/126 129/208/129 130/209/130 127/205/127
f 127/205/127 130/209/130 131/210/131 120/206/120
f 120/198/120 131/211/131 132/212/132 121/199/121
f 121/199/121 132/212/132 133/213/133 122/200/122
f 122/200/122 133/213/133 134/214/134 123/201/123
f 123/201/123 134/214/134 135/215/135 124/202/124
f 124/202/124 135/215/135 128/207/128 125/203/125
f 148/216/136 142/217/137 143/218/138 145/219/139
f 152/220/140 140/221/141 141/222/142 147/223/143
f 129/208/129 153/224/144 154/225/145 130/209/130
f 151/226/146 139/227/147 140/221/141 152/220/140
f 130/209/130 154/225/145 155/228/148 131/210/131
f 128/207/128 156/229/149 153/224/144 129/208/129
f 131/211/131 155/230/148 157/231/150 132/212/132
f 150/232/151 138/233/152 139/227/147 151/226/146
f 132/212/132 157/231/150 158/234/153 133/213/133
f 146/235/154 136/236/155 137/237/156 149/238/157
f 133/213/133 158/234/153 159/239/158 134/214/134
f 149/240/157 137/241/156 138/233/152 150/232/151
f 147/223/143 141/222/142 142/217/137 148/216/136
f 145/219/139 143/218/138 136/236/155 146/235/154
f 134/214/134 159/239/158 160/242/159 135/215/135
f 135/215/135 160/242/159 156/229/149 128/207/128
f 138/243/152 137/244/156 144/245/160
f 137/244/156 136/246/155 144/245/160
f 136/246/155 143/247/138 144/245/160
f 143/247/138 142/248/137 144/245/160
f 142/248/137 141/249/142 144/245/160
f 141/249/142 140/250/141 144/245/160
f 140/250/141 139/251/147 144/245/160
f 139/251/147 138/243/152 144/245/160
f 160/252/159 161/253/161 162/254/162 156/255/149
f 161/256/161 163/257/163 164/258/164 162/259/162
f 163/260/163 165/261/165 166/262/166 164/263/164
f 165/264/165 167/265/167 168/266/168 166/267/166
f 167/268/167 169/269/169 170/270/170 168/271/168
f 169/272/169 147/223/143 148/216/136 170/273/170
f 159/274/158 171/275/171 161/253/161 160/252/159
f 171/276/171 172/277/172 163/257/163 161/256/161
f 172/278/172 173/279/173 165/261/165 163/260/163
f 173/280/173 174/281/174 167/265/167 165/264/165
f 174/282/174 175/283/175 169/269/169 167/268/167
f 175/284/175 152/220/140 147/223/143 169/272/169
f 158/285/153 176/286/176 171/275/171 159/274/158
f 176/287/176 177/288/177 172/277/172 171/276/171
f 177/289/177 178/290/178 173/279/173 172/278/172
f 178/291/178 179/292/179 174/281/174 173/280/173
f 179/293/179 180/294/180 175/283/175 174/282/174
f 180/295/180 151/226/146 152/220/140 175/284/175
f 157/296/150 181/297/181 176/286/176 158/285/153
f 181/298/181 182/299/182 177/288/177 176/287/176
f 182/300/182 183/301/183 178/290/178 177/289/177
f 183/302/183 184/303/184 179/292/179 178/291/178
f 184/304/184 185/305/185 180/294/180 179/293/179
f 185/306/185 150/232/151 151/226/146 180/295/180
f 155/307/148 186/308/186 181/297/181 157/296/150
f 186/309/186 187/310/187 182/299/182 181/298/181
f 187/311/187 188/312/188 183/301/183 182/300/182
f 188/313/188 189/314/189 184/303/184 183/302/183
f 189/315/189 190/316/190 185/305/185 184/304/184
f 190/317/190 149/240/157 150/232/151 185/306/185
f 156/255/149 162/254/162 191/318/191 153/319/144
f 162/259/162 164/258/164 192/320/192 191/321/191
f 164/263/164 166/262/166 193/322/193 192/323/192
f 166/267/166 168/266/168 194/324/194 193/325/193
f 168/271/168 170/270/170 195/326/195 194/327/194
f 170/273/170 148/216/136 145/219/139 195/328/195
f 154/329/145 196/330/196 186/331/186 155/332/148
f 196/333/196 197/334/197 187/335/187 186/336/186
f 197/337/197 198/338/198 188/339/188 187/340/187
f 198/341/198 199/342/199 189/343/189 188/344/188
f 199/345/199 200/346/200 190/347/190 189/348/189
f 200/349/200 146/235/154 149/238/157 190/350/190
f 153/319/144 191/318/191 196/330/196 154/329/145
f 191/321/191 192/320/192 197/334/197 196/333/196
f 192/323/192 193/322/193 198/338/198 197/337/197
f 193/325/193 194/324/194 199/342/199 198/341/198
f 194/327/194 195/326/195 200/346/200 199/345/199
f 195/328/195 145/219/139 146/235/154 200/349/200
