# This file uses centimeters as units for non-parametric coordinates.

mtllib Mask.mtl
g default
v -5.065971 -0.718858 -2.031765
v -2.336524 -1.206779 -0.609995
v -2.918210 -0.635065 -0.840845
v -0.629850 -15.779588 4.062770
v -4.240421 -2.884385 -1.888885
v -2.538209 -10.616149 -2.675200
v -1.205834 -16.094419 2.477884
v -0.692454 -17.261019 2.730680
v -0.986765 -16.580246 3.773021
v -1.423671 -15.960089 3.088260
v -5.711591 -0.983340 -2.489190
v -5.240581 -1.820192 -2.284750
v -4.502903 -1.112919 -1.691760
v -4.858395 -0.008448 -1.924035
v -5.856655 -0.092428 -2.610790
v -3.992661 -0.281480 -1.406095
v -3.789360 -1.613377 -1.352610
v -3.048740 -2.362070 -1.063715
v -1.441340 -2.198296 -0.227050
v -1.217711 -1.210103 -0.159220
v -1.413980 -0.188950 -0.319010
v -1.541186 0.843036 -0.427880
v -2.803070 0.474530 -0.892620
v -3.708041 0.531437 -1.408280
v -0.766839 -15.220704 3.570290
v 0.000000 -16.773386 4.252200
v 0.000000 -15.784814 4.455595
v 0.000000 -15.130072 4.203465
v -4.615479 -2.448332 -2.027395
v -5.465920 -3.102599 -3.063085
v -4.595626 -3.653124 -2.539635
v -3.432255 -3.263242 -1.440580
v -2.934455 -10.170786 -3.171195
v -3.148680 -10.818688 -3.849020
v -2.314104 -11.675875 -3.287665
v -1.849554 -11.503827 -2.225375
v -2.161914 -10.650916 -1.810415
v -2.583240 -9.332983 -2.416705
v -3.039904 -8.282090 -2.877835
v -3.565064 -8.945287 -3.742050
v -1.720926 -9.579605 -0.970140
v -1.951396 -8.635116 -1.651860
v -2.240195 -7.635808 -1.908075
v -2.493940 -6.599264 -1.772130
v -3.459616 -7.130123 -2.972740
v -1.067421 -8.241910 -1.056115
v -1.170781 -7.303496 -1.145605
v -1.317554 -6.327280 -0.815005
v -1.404005 -5.261093 -0.556320
v -2.701704 -5.547516 -1.588970
v 0.000000 -7.222937 -0.766650
v 0.000000 -6.293265 -0.349220
v 0.000000 -5.201434 -0.071725
v 0.000000 -4.124420 0.056810
v -1.498910 -4.163746 -0.450205
v -1.614716 -3.150192 -0.348175
v -3.002759 -4.472689 -1.507555
v 0.000000 -3.163685 0.292315
v 0.000000 -2.232780 0.331740
v 0.000000 -1.089171 0.243010
v 0.000000 0.000006 0.000000
v 0.000000 0.847214 -0.118085
v 0.000000 1.607409 -0.092150
v -1.352420 1.754655 -0.286995
v 0.000000 3.432074 0.398145
v -1.283449 3.787845 0.226860
v -2.406254 4.246888 -0.134425
v -2.149944 2.528054 -0.605530
v -3.444511 4.525236 -0.648375
v -2.874131 2.785123 -0.937270
v -4.295426 4.542337 -1.198330
v -3.588626 2.739427 -1.169545
v -4.913020 4.191503 -1.682925
v -4.101054 2.676540 -1.389565
v -5.367881 3.548448 -2.113370
v -4.557339 2.514469 -1.651100
v -5.703420 2.717100 -2.430005
v -4.958430 2.178262 -1.870360
v -5.887246 1.770617 -2.603285
v -5.081834 1.615959 -1.929830
v -5.892183 0.806269 -2.643945
v -4.860484 0.851965 -1.902755
v -6.675650 2.042980 -3.408600
v -6.772169 0.913810 -3.492770
v -6.753169 -0.178780 -3.458285
v -7.387866 1.053084 -4.460060
v -7.343215 -0.132422 -4.452080
v -7.157111 -1.266818 -4.405815
v -6.530015 -1.257889 -3.320250
v -6.802382 -2.330247 -4.359550
v -6.074585 -2.247502 -3.195800
v -6.276080 -3.328128 -4.292100
v -7.344450 -2.304976 -5.606805
v -6.926927 -3.418093 -5.498125
v -6.393406 -4.533866 -5.390205
v -5.702375 -4.333704 -4.229780
v -5.789489 -5.675861 -5.289315
v -5.127530 -5.374331 -4.168315
v -4.230444 -4.993192 -2.873370
v -4.608451 -6.456480 -4.094215
v -3.803802 -6.026984 -2.908235
v -4.114831 -7.640558 -4.001970
v -5.185386 -6.828876 -5.130760
v -4.591920 -8.054760 -4.919005
v -3.952475 -9.470925 -4.504520
v -7.586225 -1.182080 -5.653355
v -7.687115 -0.029445 -5.628180
v -7.694524 1.199667 -5.530045
v -7.303601 2.286941 -4.344730
v -7.603231 2.495183 -5.298910
v -7.114835 3.584167 -4.076355
v -7.416934 3.863659 -4.942090
v -6.716595 4.976012 -3.623775
v -7.012899 5.378430 -4.418830
v -5.913180 6.270859 -3.024420
v -6.154099 6.963506 -3.749080
v -4.728625 7.290971 -2.419555
v -4.978761 8.226530 -3.129015
v -3.404325 7.786304 -1.906080
v -3.593946 8.995083 -2.608795
v -2.201149 7.845109 -1.467560
v -2.289121 9.364347 -2.203620
v -1.076730 7.762171 -1.205740
v -1.101905 9.493926 -1.981890
v 0.000000 7.701940 -1.108270
v 0.000000 9.535251 -1.902755
v -1.108270 5.785130 -0.198075
v 0.000000 5.600353 -0.075335
v -2.256916 6.112498 -0.558030
v -3.401760 6.309239 -1.101525
v -4.484379 6.277320 -1.711235
v -5.550469 5.440751 -2.310210
v -6.205970 4.408862 -2.841450
v -6.495245 3.226493 -3.190955
v 0.000000 -8.099596 -0.769025
v -1.004149 -9.100041 -0.474335
v 0.000000 -8.857791 -0.225150
v -0.872005 -10.084813 0.375820
v 0.000000 -9.765995 0.544730
v -0.739195 -11.344418 1.112355
v 0.000000 -11.093142 1.300835
v -0.682576 -12.573530 1.689575
v 0.000000 -12.363770 1.903230
v -0.674974 -13.610550 2.250645
v 0.000000 -13.398791 2.507050
v -0.722949 -14.474004 2.874131
v 0.000000 -14.214273 3.148775
v -1.094779 -14.010499 1.738310
v -1.160331 -14.955272 2.362744
v -1.106750 -14.450159 1.133825
v -1.152160 -15.490599 1.813170
v -0.714306 -14.767550 0.667565
v -0.716299 -15.901947 1.407899
v 0.000000 -14.917939 0.450395
v 0.000000 -16.095081 1.243835
v 0.000000 -17.388790 2.979579
v -0.769121 -13.697377 0.108965
v 0.000000 -13.845388 -0.142785
v -0.912664 -12.784144 -0.444315
v 0.000000 -13.028671 -0.704900
v -1.197284 -12.049981 -1.154440
v 0.000000 -12.555574 -1.344630
v 0.000000 -12.490972 -2.031195
v 0.000000 -12.676127 -2.615065
v -1.343680 -12.318833 0.071820
v -1.662784 -11.307272 -0.630230
v -1.240131 -11.772012 0.659775
v -1.478200 -10.608454 -0.059470
v -1.166505 -13.381408 0.605530
v -1.126319 -12.949160 1.205645
v 5.065971 -0.718858 -2.031765
v 2.336524 -1.206779 -0.609995
v 2.918210 -0.635065 -0.840845
v 0.629850 -15.779588 4.062770
v 4.240421 -2.884385 -1.888885
v 2.538209 -10.616149 -2.675200
v 1.205834 -16.094419 2.477884
v 0.692454 -17.261019 2.730680
v 0.986765 -16.580246 3.773021
v 1.423671 -15.960089 3.088260
v 5.711591 -0.983340 -2.489190
v 5.240581 -1.820192 -2.284750
v 4.502903 -1.112919 -1.691760
v 4.858395 -0.008448 -1.924035
v 5.856655 -0.092428 -2.610790
v 3.992661 -0.281480 -1.406095
v 3.789360 -1.613377 -1.352610
v 3.048740 -2.362070 -1.063715
v 1.441340 -2.198296 -0.227050
v 1.217711 -1.210103 -0.159220
v 1.413980 -0.188950 -0.319010
v 1.541186 0.843036 -0.427880
v 2.803070 0.474530 -0.892620
v 3.708041 0.531437 -1.408280
v 0.766839 -15.220704 3.570290
v 4.615479 -2.448332 -2.027395
v 5.465920 -3.102599 -3.063085
v 4.595626 -3.653124 -2.539635
v 3.432255 -3.263242 -1.440580
v 2.934455 -10.170786 -3.171195
v 3.148680 -10.818688 -3.849020
v 2.314104 -11.675875 -3.287665
v 1.849554 -11.503827 -2.225375
v 2.161914 -10.650916 -1.810415
v 2.583240 -9.332983 -2.416705
v 3.039904 -8.282090 -2.877835
v 3.565064 -8.945287 -3.742050
v 1.720926 -9.579605 -0.970140
v 1.951396 -8.635116 -1.651860
v 2.240195 -7.635808 -1.908075
v 2.493940 -6.599264 -1.772130
v 3.459616 -7.130123 -2.972740
v 1.067421 -8.241910 -1.056115
v 1.170781 -7.303496 -1.145605
v 1.317554 -6.327280 -0.815005
v 1.404005 -5.261093 -0.556320
v 2.701704 -5.547516 -1.588970
v 1.498910 -4.163746 -0.450205
v 1.614716 -3.150192 -0.348175
v 3.002759 -4.472689 -1.507555
v 1.352420 1.754655 -0.286995
v 1.283449 3.787845 0.226860
v 2.406254 4.246888 -0.134425
v 2.149944 2.528054 -0.605530
v 3.444511 4.525236 -0.648375
v 2.874131 2.785123 -0.937270
v 4.295426 4.542337 -1.198330
v 3.588626 2.739427 -1.169545
v 4.913020 4.191503 -1.682925
v 4.101054 2.676540 -1.389565
v 5.367881 3.548448 -2.113370
v 4.557339 2.514469 -1.651100
v 5.703420 2.717100 -2.430005
v 4.958430 2.178262 -1.870360
v 5.887246 1.770617 -2.603285
v 5.081834 1.615959 -1.929830
v 5.892183 0.806269 -2.643945
v 4.860484 0.851965 -1.902755
v 6.675650 2.042980 -3.408600
v 6.772169 0.913810 -3.492770
v 6.753169 -0.178780 -3.458285
v 7.387866 1.053084 -4.460060
v 7.343215 -0.132422 -4.452080
v 7.157111 -1.266818 -4.405815
v 6.530015 -1.257889 -3.320250
v 6.802382 -2.330247 -4.359550
v 6.074585 -2.247502 -3.195800
v 6.276080 -3.328128 -4.292100
v 7.344450 -2.304976 -5.606805
v 6.926927 -3.418093 -5.498125
v 6.393406 -4.533866 -5.390205
v 5.702375 -4.333704 -4.229780
v 5.789489 -5.675861 -5.289315
v 5.127530 -5.374331 -4.168315
v 4.230444 -4.993192 -2.873370
v 4.608451 -6.456480 -4.094215
v 3.803802 -6.026984 -2.908235
v 4.114831 -7.640558 -4.001970
v 5.185386 -6.828876 -5.130760
v 4.591920 -8.054760 -4.919005
v 3.952475 -9.470925 -4.504520
v 7.586225 -1.182080 -5.653355
v 7.687115 -0.029445 -5.628180
v 7.694524 1.199667 -5.530045
v 7.303601 2.286941 -4.344730
v 7.603231 2.495183 -5.298910
v 7.114835 3.584167 -4.076355
v 7.416934 3.863659 -4.942090
v 6.716595 4.976012 -3.623775
v 7.012899 5.378430 -4.418830
v 5.913180 6.270859 -3.024420
v 6.154099 6.963506 -3.749080
v 4.728625 7.290971 -2.419555
v 4.978761 8.226530 -3.129015
v 3.404325 7.786304 -1.906080
v 3.593946 8.995083 -2.608795
v 2.201149 7.845109 -1.467560
v 2.289121 9.364347 -2.203620
v 1.076730 7.762171 -1.205740
v 1.101905 9.493926 -1.981890
v 1.108270 5.785130 -0.198075
v 2.256916 6.112498 -0.558030
v 3.401760 6.309239 -1.101525
v 4.484379 6.277320 -1.711235
v 5.550469 5.440751 -2.310210
v 6.205970 4.408862 -2.841450
v 6.495245 3.226493 -3.190955
v 1.004149 -9.100041 -0.474335
v 0.872005 -10.084813 0.375820
v 0.739195 -11.344418 1.112355
v 0.682576 -12.573530 1.689575
v 0.674974 -13.610550 2.250645
v 0.722949 -14.474004 2.874131
v 1.094779 -14.010499 1.738310
v 1.160331 -14.955272 2.362744
v 1.106750 -14.450159 1.133825
v 1.152160 -15.490599 1.813170
v 0.714306 -14.767550 0.667565
v 0.716299 -15.901947 1.407899
v 0.769121 -13.697377 0.108965
v 0.912664 -12.784144 -0.444315
v 1.197284 -12.049981 -1.154440
v 1.343680 -12.318833 0.071820
v 1.662784 -11.307272 -0.630230
v 1.240131 -11.772012 0.659775
v 1.478200 -10.608454 -0.059470
v 1.166505 -13.381408 0.605530
v 1.126319 -12.949160 1.205645
vt 0.606130 0.029690
vt 0.608550 0.021840
vt 0.613740 0.026000
vt 0.609440 0.030540
vt 0.894890 0.302760
vt 0.889830 0.301080
vt 0.893230 0.295510
vt 0.899200 0.300100
vt 0.896290 0.307430
vt 0.888380 0.306940
vt 0.902880 0.305520
vt 0.914730 0.299360
vt 0.910690 0.303130
vt 0.904330 0.296700
vt 0.909520 0.291670
vt 0.921040 0.292890
vt 0.922390 0.299420
vt 0.920850 0.306080
vt 0.919700 0.312750
vt 0.911150 0.310450
vt 0.904480 0.310930
vt 0.615560 0.030300
vt 0.612980 0.034650
vt 0.620730 0.023470
vt 0.618810 0.030370
vt 0.617710 0.034360
vt 0.900240 0.288230
vt 0.897620 0.291190
vt 0.889170 0.286640
vt 0.896010 0.282800
vt 0.906360 0.285630
vt 0.907200 0.235810
vt 0.903090 0.238820
vt 0.898470 0.234410
vt 0.904230 0.228090
vt 0.913390 0.235630
vt 0.908750 0.244520
vt 0.911840 0.229260
vt 0.904320 0.251370
vt 0.897530 0.246810
vt 0.919820 0.242580
vt 0.915860 0.249210
vt 0.913110 0.255850
vt 0.911860 0.262900
vt 0.901490 0.258980
vt 0.923760 0.251920
vt 0.922690 0.258250
vt 0.922190 0.265220
vt 0.921720 0.272560
vt 0.910850 0.270090
vt 0.931990 0.259100
vt 0.931740 0.266080
vt 0.931470 0.273560
vt 0.931210 0.280650
vt 0.920870 0.279870
vt 0.920010 0.286560
vt 0.908930 0.277360
vt 0.930990 0.287050
vt 0.930770 0.292980
vt 0.930520 0.300240
vt 0.930260 0.307440
vt 0.930060 0.312980
vt 0.929880 0.317920
vt 0.920780 0.318520
vt 0.929450 0.329910
vt 0.921500 0.332030
vt 0.914310 0.334980
vt 0.914730 0.323260
vt 0.907220 0.336850
vt 0.909590 0.324920
vt 0.900960 0.337120
vt 0.904850 0.324930
vt 0.896040 0.334940
vt 0.901350 0.324710
vt 0.892100 0.330800
vt 0.898080 0.323800
vt 0.889220 0.325410
vt 0.895290 0.321730
vt 0.887770 0.319200
vt 0.894650 0.318110
vt 0.887830 0.312850
vt 0.896210 0.313090
vt 0.880350 0.321080
vt 0.879780 0.313560
vt 0.880370 0.306350
vt 0.872240 0.314430
vt 0.872820 0.306450
vt 0.874260 0.298830
vt 0.882380 0.299280
vt 0.876450 0.291570
vt 0.885370 0.292630
vt 0.879600 0.284560
vt 0.867450 0.290930
vt 0.870540 0.283190
vt 0.874230 0.275460
vt 0.883100 0.277500
vt 0.878220 0.267640
vt 0.886700 0.270330
vt 0.897000 0.273430
vt 0.890110 0.263060
vt 0.899530 0.266380
vt 0.893420 0.255260
vt 0.882470 0.260000
vt 0.886740 0.252100
vt 0.891950 0.243170
vt 0.865540 0.298730
vt 0.864740 0.306750
vt 0.864910 0.315290
vt 0.872940 0.322770
vt 0.866400 0.324250
vt 0.875060 0.331540
vt 0.869130 0.333690
vt 0.879250 0.340860
vt 0.873930 0.344100
vt 0.886150 0.349470
vt 0.881980 0.354850
vt 0.895210 0.356270
vt 0.891640 0.363260
vt 0.904810 0.359680
vt 0.902050 0.368520
vt 0.913430 0.360060
vt 0.911680 0.371010
vt 0.921180 0.359630
vt 0.920180 0.372040
vt 0.928420 0.359420
vt 0.927960 0.372570
vt 0.921990 0.345250
vt 0.928950 0.344210
vt 0.914480 0.347380
vt 0.906540 0.348850
vt 0.898640 0.348840
vt 0.890670 0.343430
vt 0.885080 0.336740
vt 0.882080 0.328950
vt 0.932210 0.253040
vt 0.925690 0.245310
vt 0.932440 0.246560
vt 0.604590 0.081710
vt 0.597550 0.079380
vt 0.600920 0.071360
vt 0.606680 0.074180
vt 0.604020 0.062320
vt 0.609320 0.064640
vt 0.606440 0.053880
vt 0.611730 0.055930
vt 0.608490 0.046640
vt 0.613770 0.048570
vt 0.610550 0.040300
vt 0.615440 0.042530
vt 0.603440 0.044000
vt 0.605950 0.037320
vt 0.598930 0.041040
vt 0.602350 0.033640
vt 0.595040 0.038140
vt 0.599120 0.029830
vt 0.590930 0.034870
vt 0.596120 0.025520
vt 0.610500 0.017020
vt 0.592210 0.045980
vt 0.587570 0.042660
vt 0.589230 0.052850
vt 0.584320 0.048100
vt 0.585290 0.059180
vt 0.580710 0.051430
vt 0.579530 0.066370
vt 0.576660 0.053090
vt 0.918760 0.217210
vt 0.915370 0.215010
vt 0.593840 0.056580
vt 0.590190 0.064540
vt 0.583400 0.071600
vt 0.598810 0.059750
vt 0.595400 0.068350
vt 0.591320 0.076740
vt 0.596500 0.048760
vt 0.601260 0.051480
vt 0.630030 0.036320
vt 0.626760 0.035350
vt 0.625410 0.029240
vt 0.632010 0.028350
vt 0.965870 0.305280
vt 0.961760 0.302320
vt 0.968040 0.298170
vt 0.971030 0.303970
vt 0.972070 0.309910
vt 0.964140 0.309830
vt 0.957700 0.307460
vt 0.946320 0.300490
vt 0.952070 0.293190
vt 0.956880 0.298570
vt 0.950080 0.304530
vt 0.938680 0.300000
vt 0.940490 0.293580
vt 0.939750 0.306750
vt 0.949110 0.311800
vt 0.940420 0.313500
vt 0.955730 0.312750
vt 0.621640 0.031980
vt 0.621610 0.037040
vt 0.961570 0.290410
vt 0.966170 0.285300
vt 0.972720 0.289620
vt 0.963970 0.293550
vt 0.955650 0.287390
vt 0.958390 0.237640
vt 0.961920 0.230160
vt 0.967200 0.236880
vt 0.962270 0.240940
vt 0.952230 0.237020
vt 0.956220 0.246220
vt 0.954240 0.230770
vt 0.967240 0.249310
vt 0.960140 0.253370
vt 0.948790 0.250390
vt 0.945320 0.243490
vt 0.951060 0.257200
vt 0.962420 0.261160
vt 0.951790 0.264330
vt 0.941320 0.258920
vt 0.940710 0.252530
vt 0.941320 0.265900
vt 0.952290 0.271570
vt 0.941260 0.273260
vt 0.941590 0.280610
vt 0.953670 0.278960
vt 0.941970 0.287340
vt 0.938920 0.319180
vt 0.937230 0.332600
vt 0.944600 0.324340
vt 0.944210 0.336040
vt 0.949620 0.326330
vt 0.951150 0.338400
vt 0.954350 0.326660
vt 0.957380 0.339100
vt 0.957860 0.326700
vt 0.962430 0.337280
vt 0.961190 0.326030
vt 0.966650 0.333440
vt 0.964120 0.324160
vt 0.969910 0.328260
vt 0.965020 0.320600
vt 0.971810 0.322180
vt 0.963820 0.315490
vt 0.972200 0.315840
vt 0.980170 0.317130
vt 0.979070 0.324580
vt 0.980100 0.309890
vt 0.987620 0.310530
vt 0.987630 0.318520
vt 0.978600 0.302700
vt 0.986730 0.302830
vt 0.976090 0.295860
vt 0.985060 0.295430
vt 0.982420 0.288220
vt 0.991550 0.287510
vt 0.994080 0.295440
vt 0.979430 0.280940
vt 0.988430 0.279540
vt 0.976360 0.273540
vt 0.985000 0.271460
vt 0.965860 0.275890
vt 0.963840 0.268680
vt 0.973470 0.266040
vt 0.970730 0.258030
vt 0.977620 0.255360
vt 0.981320 0.263540
vt 0.973070 0.246080
vt 0.995430 0.303350
vt 0.995660 0.311400
vt 0.994890 0.319910
vt 0.992760 0.328730
vt 0.986350 0.326790
vt 0.989370 0.337950
vt 0.983610 0.335390
vt 0.983850 0.347980
vt 0.978770 0.344380
vt 0.975060 0.358130
vt 0.971290 0.352480
vt 0.964850 0.365840
vt 0.961770 0.358620
vt 0.954090 0.370350
vt 0.951950 0.361340
vt 0.944310 0.372160
vt 0.943330 0.361110
vt 0.935760 0.372590
vt 0.935630 0.360140
vt 0.935830 0.345740
vt 0.943170 0.348400
vt 0.950990 0.350410
vt 0.958870 0.350960
vt 0.967200 0.346130
vt 0.973240 0.339860
vt 0.976790 0.332300
vt 0.939260 0.245790
vt 0.613060 0.074730
vt 0.611820 0.083330
vt 0.615050 0.065380
vt 0.617320 0.056900
vt 0.619290 0.049630
vt 0.620780 0.043140
vt 0.626260 0.042950
vt 0.624970 0.049970
vt 0.631240 0.041650
vt 0.630370 0.049750
vt 0.635970 0.040050
vt 0.635190 0.049270
vt 0.640760 0.037890
vt 0.640400 0.048580
vt 0.632820 0.023200
vt 0.639270 0.056990
vt 0.633580 0.057450
vt 0.639260 0.063320
vt 0.632600 0.064870
vt 0.640640 0.068030
vt 0.632730 0.072320
vt 0.643270 0.071540
vt 0.633970 0.081440
vt 0.948210 0.218250
vt 0.951750 0.216300
vt 0.625770 0.074400
vt 0.626740 0.065690
vt 0.627960 0.083940
vt 0.619340 0.074980
vt 0.620840 0.065850
vt 0.618530 0.084270
vt 0.622990 0.057500
vt 0.628480 0.057620
vn -0.901056 -0.343949 -0.264193
vn -0.485839 -0.839779 -0.242348
vn -0.722740 -0.472146 0.504703
vn -0.977918 -0.036834 0.205718
vn -0.550709 -0.022612 0.834391
vn -0.644577 -0.098163 0.758211
vn -0.600821 -0.226339 0.766671
vn -0.506750 -0.080744 0.858303
vn -0.518165 0.025950 0.854887
vn -0.646242 -0.005934 0.763110
vn -0.462274 0.036329 0.885992
vn -0.405230 -0.017232 0.914052
vn -0.414361 0.018489 0.909925
vn -0.478430 -0.108297 0.871422
vn -0.474987 -0.104120 0.873811
vn -0.405775 -0.033540 0.913357
vn -0.346902 0.059106 0.936037
vn -0.300752 0.095658 0.948893
vn -0.257874 0.039890 0.965355
vn -0.391481 0.087048 0.916060
vn -0.446715 0.095688 0.889545
vn -0.634851 0.129019 0.761786
vn -0.696023 0.464212 0.547776
vn 0.000000 -0.641244 0.767337
vn 0.000000 0.077343 0.997005
vn -0.000000 0.622533 0.782594
vn -0.561327 -0.240413 0.791906
vn -0.570130 -0.245413 0.784044
vn -0.682131 -0.385160 0.621570
vn -0.656941 -0.334796 0.675530
vn -0.558940 -0.226192 0.797761
vn -0.844922 -0.295006 0.446182
vn -0.831531 -0.212277 0.513318
vn -0.817191 -0.281212 0.503109
vn -0.676339 -0.622705 0.393452
vn -0.903396 -0.186851 0.385956
vn -0.826720 -0.055183 0.559901
vn -0.667570 -0.703976 0.242421
vn -0.760649 -0.160470 0.629017
vn -0.806656 -0.195774 0.557655
vn -0.823107 0.184469 0.537090
vn -0.742872 0.074394 0.665287
vn -0.656728 -0.152421 0.738564
vn -0.631436 -0.255435 0.732148
vn -0.725879 -0.242354 0.643711
vn -0.493077 0.233113 0.838173
vn -0.444407 -0.182956 0.876943
vn -0.440910 -0.282638 0.851889
vn -0.452340 -0.191778 0.870982
vn -0.628570 -0.236506 0.740921
vn -0.000000 -0.221699 0.975115
vn 0.000000 -0.309015 0.951057
vn -0.000000 -0.182306 0.983242
vn -0.000000 -0.156913 0.987613
vn -0.447864 -0.168335 0.878113
vn -0.442787 -0.132426 0.886794
vn -0.595133 -0.238382 0.767457
vn 0.000000 -0.120175 0.992753
vn 0.000000 -0.001967 0.999998
vn 0.000000 0.106686 0.994293
vn -0.000000 0.132060 0.991242
vn -0.000000 0.019902 0.999802
vn 0.000000 -0.191857 0.981423
vn -0.247855 -0.206110 0.946619
vn -0.000000 -0.060434 0.998172
vn -0.234258 -0.012801 0.972090
vn -0.379613 0.018221 0.924966
vn -0.468232 -0.262605 0.843681
vn -0.454078 0.035546 0.890252
vn -0.465655 -0.267865 0.843453
vn -0.527107 0.049554 0.848353
vn -0.452845 -0.191063 0.870877
vn -0.594768 0.009545 0.803841
vn -0.508541 -0.124545 0.851983
vn -0.633679 -0.029164 0.773046
vn -0.552501 -0.070547 0.830521
vn -0.660010 -0.015666 0.751094
vn -0.590945 -0.009582 0.806655
vn -0.672580 -0.021869 0.739701
vn -0.615705 -0.046729 0.786590
vn -0.652352 -0.019495 0.757665
vn -0.546323 -0.009636 0.837519
vn -0.776946 0.003958 0.629555
vn -0.782780 -0.000001 0.622299
vn -0.790224 -0.045895 0.611097
vn -0.913916 -0.000892 0.405902
vn -0.916146 -0.071280 0.394455
vn -0.892389 -0.188881 0.409836
vn -0.774881 -0.173369 0.607867
vn -0.834907 -0.315847 0.450746
vn -0.722377 -0.316376 0.614880
vn -0.766872 -0.386646 0.512262
vn -0.881768 -0.282262 0.377907
vn -0.818470 -0.355199 0.451597
vn -0.775415 -0.371434 0.510655
vn -0.735694 -0.378292 0.561827
vn -0.765198 -0.352606 0.538648
vn -0.741271 -0.342966 0.576967
vn -0.689349 -0.315217 0.652255
vn -0.759329 -0.300787 0.577015
vn -0.710809 -0.277658 0.646263
vn -0.779463 -0.247709 0.575394
vn -0.779668 -0.310240 0.543939
vn -0.801060 -0.254344 0.541860
vn -0.819501 -0.217064 0.530379
vn -0.932562 -0.171416 0.317717
vn -0.955927 -0.073035 0.284375
vn -0.959122 -0.002734 0.282981
vn -0.899947 0.028217 0.435084
vn -0.950269 0.040977 0.308724
vn -0.883365 0.060224 0.464800
vn -0.930408 0.091181 0.355003
vn -0.840618 0.162574 0.516654
vn -0.875807 0.200746 0.438934
vn -0.733298 0.292108 0.613960
vn -0.749606 0.321633 0.578484
vn -0.568094 0.384807 0.727456
vn -0.576917 0.389306 0.718059
vn -0.401608 0.424448 0.811514
vn -0.418423 0.409779 0.810557
vn -0.254062 0.433143 0.864778
vn -0.273302 0.409528 0.870398
vn -0.113381 0.431626 0.894899
vn -0.132630 0.405716 0.904325
vn 0.000000 0.428410 0.903584
vn 0.000000 0.402752 0.915309
vn -0.122302 0.333098 0.934927
vn 0.000000 0.317089 0.948396
vn -0.267185 0.349682 0.897961
vn -0.412013 0.340111 0.845322
vn -0.548557 0.299102 0.780783
vn -0.674079 0.178987 0.716645
vn -0.745706 0.060998 0.663477
vn -0.767016 0.004959 0.641608
vn -0.000000 0.302215 0.953240
vn -0.525334 0.476791 0.704766
vn 0.000000 0.601628 0.798776
vn -0.537959 0.444017 0.716554
vn 0.000000 0.570158 0.821535
vn -0.559213 0.350887 0.751105
vn 0.000000 0.459811 0.888017
vn -0.612727 0.337639 0.714538
vn 0.000000 0.448528 0.893769
vn -0.663745 0.406240 0.628022
vn 0.000000 0.546922 0.837184
vn -0.685495 0.505426 0.524063
vn 0.000000 0.680386 0.732854
vn -0.957400 0.156866 0.242443
vn -0.953547 0.245145 0.175076
vn -0.951450 -0.157425 -0.264500
vn -0.915202 -0.220587 -0.337262
vn -0.580577 -0.422392 -0.696071
vn -0.504053 -0.570961 -0.648024
vn -0.000000 -0.519396 -0.854534
vn -0.000000 -0.680727 -0.732537
vn -0.000000 -0.998427 -0.056071
vn -0.606821 -0.433754 -0.666053
vn 0.000000 -0.522452 -0.852669
vn -0.645614 -0.564989 -0.513780
vn 0.000000 -0.688994 -0.724768
vn -0.674106 -0.722296 -0.154499
vn 0.000000 -0.932566 -0.361000
vn 0.000000 -0.992588 0.121525
vn -0.000000 -0.936747 0.350008
vn -0.971040 -0.238736 -0.009253
vn -0.951397 -0.211811 0.223561
vn -0.883223 0.110298 0.455799
vn -0.857088 0.168995 0.486663
vn -0.967684 -0.186180 -0.170075
vn -0.929817 0.107742 0.351899
vn 0.901056 -0.343949 -0.264193
vn 0.977918 -0.036834 0.205718
vn 0.722740 -0.472146 0.504703
vn 0.485839 -0.839779 -0.242347
vn 0.550709 -0.022612 0.834391
vn 0.506750 -0.080744 0.858303
vn 0.600821 -0.226339 0.766671
vn 0.644577 -0.098163 0.758211
vn 0.646242 -0.005934 0.763110
vn 0.518165 0.025951 0.854887
vn 0.462274 0.036329 0.885992
vn 0.405230 -0.017232 0.914052
vn 0.474987 -0.104120 0.873811
vn 0.478430 -0.108297 0.871422
vn 0.414361 0.018489 0.909925
vn 0.346902 0.059106 0.936037
vn 0.405775 -0.033540 0.913357
vn 0.300752 0.095658 0.948893
vn 0.391481 0.087048 0.916060
vn 0.257874 0.039890 0.965355
vn 0.446715 0.095688 0.889545
vn 0.634851 0.129019 0.761786
vn 0.696023 0.464212 0.547777
vn 0.561326 -0.240413 0.791905
vn 0.656941 -0.334796 0.675530
vn 0.682131 -0.385160 0.621570
vn 0.570130 -0.245413 0.784044
vn 0.558940 -0.226192 0.797761
vn 0.844922 -0.295006 0.446182
vn 0.676339 -0.622705 0.393452
vn 0.817191 -0.281212 0.503109
vn 0.831531 -0.212276 0.513318
vn 0.903396 -0.186851 0.385956
vn 0.826720 -0.055183 0.559901
vn 0.667570 -0.703976 0.242421
vn 0.806656 -0.195774 0.557655
vn 0.760649 -0.160470 0.629017
vn 0.742872 0.074394 0.665287
vn 0.823107 0.184469 0.537090
vn 0.656728 -0.152421 0.738564
vn 0.725879 -0.242354 0.643711
vn 0.631436 -0.255436 0.732148
vn 0.444407 -0.182956 0.876943
vn 0.493077 0.233113 0.838173
vn 0.440910 -0.282638 0.851888
vn 0.628570 -0.236506 0.740921
vn 0.452340 -0.191778 0.870982
vn 0.447864 -0.168335 0.878113
vn 0.595133 -0.238382 0.767457
vn 0.442787 -0.132426 0.886794
vn 0.247855 -0.206110 0.946619
vn 0.234258 -0.012801 0.972090
vn 0.468232 -0.262605 0.843681
vn 0.379613 0.018221 0.924966
vn 0.465655 -0.267865 0.843453
vn 0.454078 0.035546 0.890252
vn 0.452845 -0.191063 0.870877
vn 0.527107 0.049554 0.848353
vn 0.508541 -0.124545 0.851983
vn 0.594768 0.009545 0.803841
vn 0.552501 -0.070547 0.830521
vn 0.633679 -0.029164 0.773046
vn 0.590945 -0.009582 0.806655
vn 0.660010 -0.015666 0.751093
vn 0.615705 -0.046729 0.786590
vn 0.672580 -0.021869 0.739701
vn 0.546323 -0.009636 0.837519
vn 0.652352 -0.019495 0.757665
vn 0.782780 -0.000001 0.622299
vn 0.776946 0.003958 0.629555
vn 0.790224 -0.045895 0.611097
vn 0.916146 -0.071280 0.394455
vn 0.913916 -0.000892 0.405903
vn 0.774881 -0.173369 0.607867
vn 0.892389 -0.188881 0.409836
vn 0.722377 -0.316376 0.614880
vn 0.834906 -0.315847 0.450746
vn 0.766872 -0.386646 0.512262
vn 0.818470 -0.355199 0.451597
vn 0.881768 -0.282262 0.377907
vn 0.735694 -0.378292 0.561827
vn 0.775415 -0.371434 0.510655
vn 0.741271 -0.342966 0.576967
vn 0.765198 -0.352606 0.538648
vn 0.689349 -0.315217 0.652255
vn 0.710809 -0.277658 0.646263
vn 0.759329 -0.300787 0.577015
vn 0.779463 -0.247709 0.575394
vn 0.801060 -0.254344 0.541860
vn 0.779667 -0.310240 0.543939
vn 0.819501 -0.217064 0.530379
vn 0.932562 -0.171417 0.317717
vn 0.955927 -0.073035 0.284375
vn 0.959122 -0.002734 0.282981
vn 0.950269 0.040977 0.308724
vn 0.899948 0.028217 0.435084
vn 0.930408 0.091181 0.355003
vn 0.883365 0.060224 0.464800
vn 0.875807 0.200746 0.438935
vn 0.840618 0.162574 0.516654
vn 0.749606 0.321633 0.578484
vn 0.733298 0.292108 0.613960
vn 0.576917 0.389306 0.718058
vn 0.568094 0.384807 0.727456
vn 0.418423 0.409779 0.810557
vn 0.401608 0.424448 0.811514
vn 0.273302 0.409528 0.870398
vn 0.254062 0.433143 0.864778
vn 0.132630 0.405716 0.904325
vn 0.113381 0.431626 0.894899
vn 0.122302 0.333098 0.934927
vn 0.267185 0.349682 0.897961
vn 0.412013 0.340111 0.845322
vn 0.548558 0.299102 0.780783
vn 0.674080 0.178987 0.716645
vn 0.745706 0.060998 0.663477
vn 0.767016 0.004959 0.641608
vn 0.525334 0.476791 0.704766
vn 0.537959 0.444017 0.716554
vn 0.559214 0.350887 0.751105
vn 0.612727 0.337639 0.714538
vn 0.663745 0.406240 0.628022
vn 0.685495 0.505426 0.524063
vn 0.953547 0.245145 0.175076
vn 0.957400 0.156866 0.242443
vn 0.915202 -0.220587 -0.337262
vn 0.951450 -0.157424 -0.264500
vn 0.504053 -0.570961 -0.648024
vn 0.580577 -0.422392 -0.696071
vn 0.606821 -0.433754 -0.666053
vn 0.645614 -0.564990 -0.513780
vn 0.674106 -0.722296 -0.154499
vn 0.951397 -0.211811 0.223561
vn 0.971041 -0.238736 -0.009253
vn 0.857088 0.168994 0.486663
vn 0.883223 0.110298 0.455799
vn 0.929817 0.107742 0.351899
vn 0.967684 -0.186180 -0.170075
s 1
g Mask
usemtl low55:lambert2SG
f 7/1/1 8/2/2 9/3/3 10/4/4
f 1/5/5 11/6/6 12/7/7 13/8/8
f 1/5/5 14/9/9 15/10/10 11/6/6
f 1/5/5 13/8/8 16/11/11 14/9/9
f 2/12/12 3/13/13 17/14/14 18/15/15
f 2/12/12 18/15/15 19/16/16 20/17/17
f 2/12/12 20/17/17 21/18/18 3/13/13
f 3/13/13 21/18/18 22/19/19 23/20/20
f 3/13/13 23/20/20 24/21/21 16/11/11
f 3/13/13 16/11/11 13/8/8 17/14/14
f 4/22/22 25/23/23 10/4/4 9/3/3
f 4/22/22 9/3/3 26/24/24 27/25/25
f 4/22/22 27/25/25 28/26/26 25/23/23
f 5/27/27 29/28/28 30/29/29 31/30/30
f 18/15/15 17/14/14 29/28/28 5/27/27
f 5/27/27 31/30/30 32/31/31 18/15/15
f 6/32/32 33/33/33 34/34/34 35/35/35
f 37/36/36 38/37/37 33/33/33 6/32/32
f 6/32/32 35/35/35 36/38/38 37/36/36
f 38/37/37 39/39/39 40/40/40 33/33/33
f 38/37/37 37/36/36 41/41/41 42/42/42
f 38/37/37 42/42/42 43/43/43 39/39/39
f 43/43/43 44/44/44 45/45/45 39/39/39
f 43/43/43 42/42/42 46/46/46 47/47/47
f 43/43/43 47/47/47 48/48/48 44/44/44
f 48/48/48 49/49/49 50/50/50 44/44/44
f 48/48/48 47/47/47 51/51/51 52/52/52
f 48/48/48 52/52/52 53/53/53 49/49/49
f 53/53/53 54/54/54 55/55/55 49/49/49
f 55/55/55 56/56/56 32/31/31 57/57/57
f 55/55/55 57/57/57 50/50/50 49/49/49
f 55/55/55 54/54/54 58/58/58 56/56/56
f 58/58/58 59/59/59 19/16/16 56/56/56
f 59/59/59 60/60/60 20/17/17 19/16/16
f 60/60/60 61/61/61 21/18/18 20/17/17
f 61/61/61 62/62/62 22/19/19 21/18/18
f 62/62/62 63/63/63 64/64/64 22/19/19
f 64/64/64 63/63/63 65/65/65 66/66/66
f 64/64/64 66/66/66 67/67/67 68/68/68
f 68/68/68 67/67/67 69/69/69 70/70/70
f 70/70/70 69/69/69 71/71/71 72/72/72
f 72/72/72 71/71/71 73/73/73 74/74/74
f 74/74/74 73/73/73 75/75/75 76/76/76
f 76/76/76 75/75/75 77/77/77 78/78/78
f 78/78/78 77/77/77 79/79/79 80/80/80
f 80/80/80 79/79/79 81/81/81 82/82/82
f 82/82/82 81/81/81 15/10/10 14/9/9
f 82/82/82 14/9/9 16/11/11 24/21/21
f 81/81/81 79/79/79 83/83/83 84/84/84
f 81/81/81 84/84/84 85/85/85 15/10/10
f 85/85/85 84/84/84 86/86/86 87/87/87
f 85/85/85 87/87/87 88/88/88 89/89/89
f 85/85/85 89/89/89 11/6/6 15/10/10
f 89/89/89 88/88/88 90/90/90 91/91/91
f 89/89/89 91/91/91 12/7/7 11/6/6
f 91/91/91 90/90/90 92/92/92 30/29/29
f 91/91/91 30/29/29 29/28/28 12/7/7
f 92/92/92 90/90/90 93/93/93 94/94/94
f 92/92/92 94/94/94 95/95/95 96/96/96
f 92/92/92 96/96/96 31/30/30 30/29/29
f 96/96/96 95/95/95 97/97/97 98/98/98
f 96/96/96 98/98/98 99/99/99 31/30/30
f 99/99/99 98/98/98 100/100/100 101/101/101
f 99/99/99 101/101/101 50/50/50 57/57/57
f 99/99/99 57/57/57 32/31/31 31/30/30
f 101/101/101 100/100/100 102/102/102 45/45/45
f 101/101/101 45/45/45 44/44/44 50/50/50
f 102/102/102 100/100/100 103/103/103 104/104/104
f 102/102/102 104/104/104 105/105/105 40/40/40
f 102/102/102 40/40/40 39/39/39 45/45/45
f 105/105/105 34/34/34 33/33/33 40/40/40
f 103/103/103 100/100/100 98/98/98 97/97/97
f 93/93/93 90/90/90 88/88/88 106/106/106
f 106/106/106 88/88/88 87/87/87 107/107/107
f 107/107/107 87/87/87 86/86/86 108/108/108
f 108/108/108 86/86/86 109/109/109 110/110/110
f 110/110/110 109/109/109 111/111/111 112/112/112
f 112/112/112 111/111/111 113/113/113 114/114/114
f 114/114/114 113/113/113 115/115/115 116/116/116
f 116/116/116 115/115/115 117/117/117 118/118/118
f 118/118/118 117/117/117 119/119/119 120/120/120
f 120/120/120 119/119/119 121/121/121 122/122/122
f 122/122/122 121/121/121 123/123/123 124/124/124
f 124/124/124 123/123/123 125/125/125 126/126/126
f 125/125/125 123/123/123 127/127/127 128/128/128
f 128/128/128 127/127/127 66/66/66 65/65/65
f 127/127/127 123/123/123 121/121/121 129/129/129
f 127/127/127 129/129/129 67/67/67 66/66/66
f 129/129/129 121/121/121 119/119/119 130/130/130
f 129/129/129 130/130/130 69/69/69 67/67/67
f 130/130/130 119/119/119 117/117/117 131/131/131
f 130/130/130 131/131/131 71/71/71 69/69/69
f 131/131/131 117/117/117 115/115/115 132/132/132
f 131/131/131 132/132/132 73/73/73 71/71/71
f 132/132/132 115/115/115 113/113/113 133/133/133
f 132/132/132 133/133/133 75/75/75 73/73/73
f 133/133/133 113/113/113 111/111/111 134/134/134
f 133/133/133 134/134/134 77/77/77 75/75/75
f 134/134/134 111/111/111 109/109/109 83/83/83
f 134/134/134 83/83/83 79/79/79 77/77/77
f 109/109/109 86/86/86 84/84/84 83/83/83
f 56/56/56 19/16/16 18/15/15 32/31/31
f 51/51/51 47/47/47 46/46/46 135/135/135
f 135/135/135 46/46/46 136/136/136 137/137/137
f 137/138/137 136/139/136 138/140/138 139/141/139
f 139/141/139 138/140/138 140/142/140 141/143/141
f 141/143/141 140/142/140 142/144/142 143/145/143
f 143/145/143 142/144/142 144/146/144 145/147/145
f 145/147/145 144/146/144 146/148/146 147/149/147
f 147/149/147 146/148/146 25/23/23 28/26/26
f 146/148/146 144/146/144 148/150/148 149/151/149
f 146/148/146 149/151/149 10/4/4 25/23/23
f 149/151/149 148/150/148 150/152/150 151/153/151
f 149/151/149 151/153/151 7/1/1 10/4/4
f 151/153/151 150/152/150 152/154/152 153/155/153
f 151/153/151 153/155/153 8/2/2 7/1/1
f 153/155/153 152/154/152 154/156/154 155/157/155
f 153/155/153 155/157/155 156/158/156 8/2/2
f 26/24/24 9/3/3 8/2/2 156/158/156
f 154/156/154 152/154/152 157/159/157 158/160/158
f 158/160/158 157/159/157 159/161/159 160/162/160
f 160/162/160 159/161/159 161/163/161 162/164/162
f 162/164/162 161/163/161 36/165/38 163/166/163
f 163/167/163 36/38/38 35/35/35 164/168/164
f 161/163/161 159/161/159 165/169/165 166/170/166
f 161/163/161 166/170/166 37/171/36 36/165/38
f 166/170/166 165/169/165 167/172/167 168/173/168
f 166/170/166 168/173/168 41/174/41 37/171/36
f 168/173/168 167/172/167 140/142/140 138/140/138
f 168/173/168 138/140/138 136/139/136 41/174/41
f 167/172/167 165/169/165 169/175/169 170/176/170
f 167/172/167 170/176/170 142/144/142 140/142/140
f 170/176/170 169/175/169 150/152/150 148/150/148
f 170/176/170 148/150/148 144/146/144 142/144/142
f 169/175/169 165/169/165 159/161/159 157/159/157
f 169/175/169 157/159/157 152/154/152 150/152/150
f 136/136/136 46/46/46 42/42/42 41/41/41
f 29/28/28 17/14/14 13/8/8 12/7/7
f 177/177/171 180/178/172 179/179/173 178/180/174
f 171/181/175 183/182/176 182/183/177 181/184/178
f 171/181/175 181/184/178 185/185/179 184/186/180
f 171/181/175 184/186/180 186/187/181 183/182/176
f 172/188/182 188/189/183 187/190/184 173/191/185
f 172/188/182 190/192/186 189/193/187 188/189/183
f 172/188/182 173/191/185 191/194/188 190/192/186
f 173/191/185 193/195/189 192/196/190 191/194/188
f 173/191/185 186/187/181 194/197/191 193/195/189
f 173/191/185 187/190/184 183/182/176 186/187/181
f 174/198/192 179/179/173 180/178/172 195/199/193
f 174/198/192 27/25/25 26/24/24 179/179/173
f 174/198/192 195/199/193 28/26/26 27/25/25
f 175/200/194 198/201/195 197/202/196 196/203/197
f 188/189/183 175/200/194 196/203/197 187/190/184
f 175/200/194 188/189/183 199/204/198 198/201/195
f 176/205/199 202/206/200 201/207/201 200/208/202
f 204/209/203 176/205/199 200/208/202 205/210/204
f 176/205/199 204/209/203 203/211/205 202/206/200
f 205/210/204 200/208/202 207/212/206 206/213/207
f 205/210/204 209/214/208 208/215/209 204/209/203
f 205/210/204 206/213/207 210/216/210 209/214/208
f 210/216/210 206/213/207 212/217/211 211/218/212
f 210/216/210 214/219/213 213/220/214 209/214/208
f 210/216/210 211/218/212 215/221/215 214/219/213
f 215/221/215 211/218/212 217/222/216 216/223/217
f 215/221/215 52/52/52 51/51/51 214/219/213
f 215/221/215 216/223/217 53/53/53 52/52/52
f 53/53/53 216/223/217 218/224/218 54/54/54
f 218/224/218 220/225/219 199/204/198 219/226/220
f 218/224/218 216/223/217 217/222/216 220/225/219
f 218/224/218 219/226/220 58/58/58 54/54/54
f 58/58/58 219/226/220 189/193/187 59/59/59
f 59/59/59 189/193/187 190/192/186 60/60/60
f 60/60/60 190/192/186 191/194/188 61/61/61
f 61/61/61 191/194/188 192/196/190 62/62/62
f 62/62/62 192/196/190 221/227/221 63/63/63
f 221/227/221 222/228/222 65/65/65 63/63/63
f 221/227/221 224/229/223 223/230/224 222/228/222
f 224/229/223 226/231/225 225/232/226 223/230/224
f 226/231/225 228/233/227 227/234/228 225/232/226
f 228/233/227 230/235/229 229/236/230 227/234/228
f 230/235/229 232/237/231 231/238/232 229/236/230
f 232/237/231 234/239/233 233/240/234 231/238/232
f 234/239/233 236/241/235 235/242/236 233/240/234
f 236/241/235 238/243/237 237/244/238 235/242/236
f 238/243/237 184/186/180 185/185/179 237/244/238
f 238/243/237 194/197/191 186/187/181 184/186/180
f 237/244/238 240/245/239 239/246/240 235/242/236
f 237/244/238 185/185/179 241/247/241 240/245/239
f 241/247/241 243/248/242 242/249/243 240/245/239
f 241/247/241 245/250/244 244/251/245 243/248/242
f 241/247/241 185/185/179 181/184/178 245/250/244
f 245/250/244 247/252/246 246/253/247 244/251/245
f 245/250/244 181/184/178 182/183/177 247/252/246
f 247/252/246 197/202/196 248/254/248 246/253/247
f 247/252/246 182/183/177 196/203/197 197/202/196
f 248/254/248 250/255/249 249/256/250 246/253/247
f 248/254/248 252/257/251 251/258/252 250/255/249
f 248/254/248 197/202/196 198/201/195 252/257/251
f 252/257/251 254/259/253 253/260/254 251/258/252
f 252/257/251 198/201/195 255/261/255 254/259/253
f 255/261/255 257/262/256 256/263/257 254/259/253
f 255/261/255 220/225/219 217/222/216 257/262/256
f 255/261/255 198/201/195 199/204/198 220/225/219
f 257/262/256 212/217/211 258/264/258 256/263/257
f 257/262/256 217/222/216 211/218/212 212/217/211
f 258/264/258 260/265/259 259/266/260 256/263/257
f 258/264/258 207/212/206 261/267/261 260/265/259
f 258/264/258 212/217/211 206/213/207 207/212/206
f 261/267/261 207/212/206 200/208/202 201/207/201
f 259/266/260 253/260/254 254/259/253 256/263/257
f 249/256/250 262/268/262 244/251/245 246/253/247
f 262/268/262 263/269/263 243/248/242 244/251/245
f 263/269/263 264/270/264 242/249/243 243/248/242
f 264/270/264 266/271/265 265/272/266 242/249/243
f 266/271/265 268/273/267 267/274/268 265/272/266
f 268/273/267 270/275/269 269/276/270 267/274/268
f 270/275/269 272/277/271 271/278/272 269/276/270
f 272/277/271 274/279/273 273/280/274 271/278/272
f 274/279/273 276/281/275 275/282/276 273/280/274
f 276/281/275 278/283/277 277/284/278 275/282/276
f 278/283/277 280/285/279 279/286/280 277/284/278
f 280/285/279 126/126/126 125/125/125 279/286/280
f 125/125/125 128/128/128 281/287/281 279/286/280
f 128/128/128 65/65/65 222/228/222 281/287/281
f 281/287/281 282/288/282 277/284/278 279/286/280
f 281/287/281 222/228/222 223/230/224 282/288/282
f 282/288/282 283/289/283 275/282/276 277/284/278
f 282/288/282 223/230/224 225/232/226 283/289/283
f 283/289/283 284/290/284 273/280/274 275/282/276
f 283/289/283 225/232/226 227/234/228 284/290/284
f 284/290/284 285/291/285 271/278/272 273/280/274
f 284/290/284 227/234/228 229/236/230 285/291/285
f 285/291/285 286/292/286 269/276/270 271/278/272
f 285/291/285 229/236/230 231/238/232 286/292/286
f 286/292/286 287/293/287 267/274/268 269/276/270
f 286/292/286 231/238/232 233/240/234 287/293/287
f 287/293/287 239/246/240 265/272/266 267/274/268
f 287/293/287 233/240/234 235/242/236 239/246/240
f 265/272/266 239/246/240 240/245/239 242/249/243
f 219/226/220 199/204/198 188/189/183 189/193/187
f 51/51/51 135/135/135 213/220/214 214/219/213
f 135/135/135 137/137/137 288/294/288 213/220/214
f 137/138/137 139/141/139 289/295/289 288/296/288
f 139/141/139 141/143/141 290/297/290 289/295/289
f 141/143/141 143/145/143 291/298/291 290/297/290
f 143/145/143 145/147/145 292/299/292 291/298/291
f 145/147/145 147/149/147 293/300/293 292/299/292
f 147/149/147 28/26/26 195/199/193 293/300/293
f 293/300/293 295/301/294 294/302/295 292/299/292
f 293/300/293 195/199/193 180/178/172 295/301/294
f 295/301/294 297/303/296 296/304/297 294/302/295
f 295/301/294 180/178/172 177/177/171 297/303/296
f 297/303/296 299/305/298 298/306/299 296/304/297
f 297/303/296 177/177/171 178/180/174 299/305/298
f 299/305/298 155/307/155 154/308/154 298/306/299
f 299/305/298 178/180/174 156/309/156 155/307/155
f 26/24/24 156/309/156 178/180/174 179/179/173
f 154/308/154 158/310/158 300/311/300 298/306/299
f 158/310/158 160/312/160 301/313/301 300/311/300
f 160/312/160 162/314/162 302/315/302 301/313/301
f 162/314/162 163/316/163 203/317/205 302/315/302
f 163/318/163 164/319/164 202/206/200 203/211/205
f 302/315/302 304/320/303 303/321/304 301/313/301
f 302/315/302 203/317/205 204/322/203 304/320/303
f 304/320/303 306/323/305 305/324/306 303/321/304
f 304/320/303 204/322/203 208/325/209 306/323/305
f 306/323/305 289/295/289 290/297/290 305/324/306
f 306/323/305 208/325/209 288/296/288 289/295/289
f 305/324/306 308/326/307 307/327/308 303/321/304
f 305/324/306 290/297/290 291/298/291 308/326/307
f 308/326/307 294/302/295 296/304/297 307/327/308
f 308/326/307 291/298/291 292/299/292 294/302/295
f 307/327/308 300/311/300 301/313/301 303/321/304
f 307/327/308 296/304/297 298/306/299 300/311/300
f 288/294/288 208/215/209 209/214/208 213/220/214
f 196/203/197 182/183/177 183/182/176 187/190/184
